/* XPM */
static char * emoji_xpm[] = {
"50 50 180 2",
"  	c #FFFFFF",
". 	c #FEFEFE",
"+ 	c #FDFDFD",
"@ 	c #FCFCFC",
"# 	c #EDEDED",
"$ 	c #C4C4C4",
"% 	c #9D9D9D",
"& 	c #8A8A8A",
"* 	c #838383",
"= 	c #868686",
"- 	c #969696",
"; 	c #ACACAC",
"> 	c #D0D0D0",
", 	c #F8F8F8",
"' 	c #FAFAFA",
") 	c #F6F6F6",
"! 	c #A0A0A0",
"~ 	c #393939",
"{ 	c #020202",
"] 	c #000000",
"^ 	c #030303",
"/ 	c #010101",
"( 	c #040404",
"_ 	c #161616",
": 	c #5D5D5D",
"< 	c #BFBFBF",
"[ 	c #FBFBFB",
"} 	c #DDDDDD",
"| 	c #444444",
"1 	c #141414",
"2 	c #2D2D2D",
"3 	c #383838",
"4 	c #373737",
"5 	c #232323",
"6 	c #080808",
"7 	c #050505",
"8 	c #E3E3E3",
"9 	c #3A3A3A",
"0 	c #484848",
"a 	c #E9E9E9",
"b 	c #D2D2D2",
"c 	c #878787",
"d 	c #292929",
"e 	c #7C7C7C",
"f 	c #777777",
"g 	c #191919",
"h 	c #F9F9F9",
"i 	c #E8E8E8",
"j 	c #757575",
"k 	c #C9C9C9",
"l 	c #EFEFEF",
"m 	c #252525",
"n 	c #070707",
"o 	c #BBBBBB",
"p 	c #727272",
"q 	c #767676",
"r 	c #E0E0E0",
"s 	c #6A6A6A",
"t 	c #272727",
"u 	c #424242",
"v 	c #CDCDCD",
"w 	c #6E6E6E",
"x 	c #2F2F2F",
"y 	c #989898",
"z 	c #333333",
"A 	c #F4F4F4",
"B 	c #9E9E9E",
"C 	c #5C5C5C",
"D 	c #E6E6E6",
"E 	c #848484",
"F 	c #8E8E8E",
"G 	c #B6B6B6",
"H 	c #F2F2F2",
"I 	c #F3F3F3",
"J 	c #5E5E5E",
"K 	c #555555",
"L 	c #B2B2B2",
"M 	c #090909",
"N 	c #C3C3C3",
"O 	c #EBEBEB",
"P 	c #999999",
"Q 	c #2E2E2E",
"R 	c #696969",
"S 	c #121212",
"T 	c #C5C5C5",
"U 	c #D8D8D8",
"V 	c #898989",
"W 	c #0E0E0E",
"X 	c #131313",
"Y 	c #7E7E7E",
"Z 	c #F1F1F1",
"` 	c #464646",
" .	c #1A1A1A",
"..	c #A1A1A1",
"+.	c #5F5F5F",
"@.	c #BEBEBE",
"#.	c #5B5B5B",
"$.	c #979797",
"%.	c #939393",
"&.	c #363636",
"*.	c #B8B8B8",
"=.	c #8D8D8D",
"-.	c #F0F0F0",
";.	c #D1D1D1",
">.	c #D5D5D5",
",.	c #171717",
"'.	c #CECECE",
").	c #CBCBCB",
"!.	c #9A9A9A",
"~.	c #616161",
"{.	c #DADADA",
"].	c #F7F7F7",
"^.	c #404040",
"/.	c #858585",
"(.	c #060606",
"_.	c #A9A9A9",
":.	c #212121",
"<.	c #343434",
"[.	c #B1B1B1",
"}.	c #737373",
"|.	c #1D1D1D",
"1.	c #C2C2C2",
"2.	c #A2A2A2",
"3.	c #1B1B1B",
"4.	c #D6D6D6",
"5.	c #282828",
"6.	c #E7E7E7",
"7.	c #A6A6A6",
"8.	c #181818",
"9.	c #959595",
"0.	c #D3D3D3",
"a.	c #5A5A5A",
"b.	c #414141",
"c.	c #2A2A2A",
"d.	c #818181",
"e.	c #3D3D3D",
"f.	c #B7B7B7",
"g.	c #E2E2E2",
"h.	c #8F8F8F",
"i.	c #929292",
"j.	c #2B2B2B",
"k.	c #111111",
"l.	c #909090",
"m.	c #6F6F6F",
"n.	c #151515",
"o.	c #E5E5E5",
"p.	c #A3A3A3",
"q.	c #6C6C6C",
"r.	c #D7D7D7",
"s.	c #303030",
"t.	c #4F4F4F",
"u.	c #747474",
"v.	c #BDBDBD",
"w.	c #222222",
"x.	c #323232",
"y.	c #8C8C8C",
"z.	c #454545",
"A.	c #535353",
"B.	c #101010",
"C.	c #494949",
"D.	c #CCCCCC",
"E.	c #808080",
"F.	c #F5F5F5",
"G.	c #CACACA",
"H.	c #4C4C4C",
"I.	c #9F9F9F",
"J.	c #595959",
"K.	c #9C9C9C",
"L.	c #C7C7C7",
"M.	c #6D6D6D",
"N.	c #7D7D7D",
"O.	c #BCBCBC",
"P.	c #6B6B6B",
"Q.	c #B4B4B4",
"R.	c #787878",
"S.	c #E1E1E1",
"T.	c #1C1C1C",
"U.	c #353535",
"V.	c #545454",
"W.	c #7A7A7A",
"      . . . . . . . . + @   + +     .   # $ % & * = - ; > +   + @     +   @       @ @ . + + + . . . ",
"    . . . . . . . . . + + , '   ) ! ~ { ] ] ^ / ] ] ] ( ] ] _ : <   [ [ @ + +   . [   . . . . . .   ",
"  . . . . . . . + + + @     } | ] ] ^ { { ] 1 2 3 4 5 6 7 ] { / 7 7 * @ @   ) + + @   . . . . .     ",
"  . .       . + @ @ [   8 9 ] { ( / 0 % a   [   + [     [ b c d ] ] ] ] e @     +   . + + + + + .   ",
"+     ' . . [   ,     f / ] ] g ; .   + + . . . . . . [   h . @ i j ] ^ ^ 6 k ' + + . .   + +     + ",
". . .       h @   l m ] ^ n o + @   ' + + . . . . . . + .     [ . . . p { ] { q   @   +   + @   @   ",
"  + [   h @   + r / { 6 s   + [ @     + . . . . . . .   @ + @ . +   +   # t ] { u '     h @ . +     ",
"  + [   + @ @ v ] ( ] <   @ +     + ' . . .         . + +   .   +   @ . [ + w ] / x @ +   .     .   ",
"  . . '     } ] ^ 7 a   +   . . +                           +   +     @ @   + y ] { z     [   . . . ",
". .         ] ^ { A ' +   [ .     +                   +     . .   . . +   ' @ @ B ] ] C     ,   . . ",
". . . . h d ] ] D + . [ @ +   [     +                   . .     + [       + @ . + E ^ / y   @ +   + ",
". + + . F 7 { G + + . '   .     .                           [   . .     @     ,   . 0 ^ ] H + ' [   ",
". [   I ] ^ J   @   @   . + . @   .                       .       '     + +     h     ( ] 3 .       ",
"+   ' K n { + . @   [ @     . .   . +                     . [   [   + ' . @   '   . @ L ^ M N   .   ",
"[ . O ] ] P . + + h       @ + [ + .                   @ .   . + . ,       + [ + +   . @ Q ] 2       ",
".   R ] S           @ @ . @   @   . .                     +   '   . .   + +     + + .   T ] ( U .   ",
"  [ ] ] V   [   ' +     @ C W X Y   @ . . + + . . . . @   +     Z ` 6  ...'   . .   @   [  .{ +.  @ ",
". @.^ ] , .         [ + Q ] ] ( ^ #.. . + + . .   . .   .     [ n ] { ] ] $.[ + + .   h   %.{ / @   ",
"  C ] &.@ @ [     ,   *.^ ( ( ] ] 7 [ . . + .     . + . +   @ =.] ^ ( ( ] /   @ [ + [ . . -.] / ;.  ",
".  .] & @   ' @   .   =.] { ] ( { ] >.+ + + .     . +     @   J / { ] ] ( ] [ '   . . .   + ,.( E [ ",
"  ] { '.@   + +     . ).7 ^ / / { / [         . . . . +   + [ !./ { ^ { ^ M .   h ,   @   . ~.] 0 . ",
"{.{ ] @   ]..   [ [ @ [ ^.] ^ ] ] /.  + + . . . . . .   '     . S (.] ] / _.  '   . .   . ' $.( ,.+ ",
"G (.n [       . .   '   [ /.:.<.[.@ [ @ @ + .     . .   @   [ +   }.|.9 1.  @ [ [   @ + .   < ] ^   ",
"2.( 3.. [   + . .   @ . [     , .   @ . . .         . @   . ].    h     + @     . +   . [   4.] ( ' ",
"$.] 5.  @ . @   . +   +   '       +                     .   +     @ @ + + +   '   .     . + 6.{ ] ].",
"- ] t , .   .     .         @ .   +         . .       +   @   . ' @     [           +   .   6.] ] [ ",
"7.{ 8.  + ' +   . +   + .       + +                       +         + +   [     @   .   h   U ] / ' ",
"*.] 6 .   @   [     .       + .     +                   @       . +     .     +       [   + $ ] ]   ",
"{.^ ] ) . .             [     .   . .                     . .       .   +   [ .       . .   9./ 3.+ ",
"h ^ ] 0.+ + [   .   ' '   .     @ .                   h   +       .   .   +     .   .     @ a.] b.  ",
"   ./ F .   +   . .     . .   ,     .                   '     . .   +   @ + +   +   '   + , c.{ d., ",
"' a.^ e.h         [ + @ +   +     +                 . .   .     . [   .     [   . +       , ] ] v   ",
"  f.] ] [ + @ h .   '   g.p     '                 . + +   [   @ '   @ >.h.[   '     @ @ . %.( ]     ",
"  , ( ( i.'     + +   } ] 7 : +   @ . + + + .     . +   @   @ .   . h ( ] j.+ . + + [ .   :.7 C . + ",
")   #.] k..   , [ @ + @ l.] { m.+ + . . + @ + . . . +   @ @ + ) h   n.{ ^ o..   @   .   v / ^ ;.@   ",
"  @ 8 { { p.+   . @   h   q./ { `   @   . + @ + . . . + +   h   r.n ] / v   . + .   ' [ &.] s.  . . ",
"+ + . t./ 6   .   +   [ [   R ] / M @.. . . + + . [     ,     u./ ] ( k   [ +   h . + v.] 6 v..   . ",
"+ + . Z / ] ~.  + + + @   H   7.] ] ] w.7.@     '   , ' O }.] ( / |.O   . . ' .   '   7 ] x.  @ [   ",
". . . . y.7 ] <   . @   h   ' . -.^.] ] { ] 8.z.a.A.~ B.] ( ] ( c .     [ . +   '   C.] / l +       ",
"  . + + ' 5.{ ] O @     [ .     ].  D.t./ { ] { ^ { { / ] M E.Z + + +       @ + + c ] ] !.[ @ [   [ ",
". + @   . ' { / ] F.[ ].  F.    @   + + + G.=.: H.A.s I.}   . ' [   + + .   @ @ ; ] ^ J.,     @     ",
"  . + +   @ 4.7 ] k.I   ' @   @ @ [         [   [ [       h @   . @ [ . @ [   K.] / Q   . [ @   . @ ",
"    + @   '   $ { / ] L.    @ .   +   [   . . +     , @     [ . + '   + . + M.{ { 5.+ , @     +     ",
"  + [   @   + + r.] 7 ] N.. [   + . '   @   +   ].    +     . ' . +   . # d ] / <.[   [ . . @ . +   ",
"  . . h + .   @ . # g ] ] g O.+   @ . . + + . @       +   + . '   @   N.] / (.P.  . +   . + .       ",
". . . .   . h     +   }.] ] { :.Q.  @ .   [ + + @ h .   .     + Z R.] ^ ] M v.+ . + ' . + + .       ",
". . .     F.    . ,   [ S.x.^ { ] n K _.O   +     +     @ {./.<.] 7 { ] m.  h     +   . + + .       ",
"  . . .       [ .   [   [   D.b.] ] ] ] ] ] T.U.u e.c.1 / { / ] 7 ] }.h @       + . . . . . .       ",
"        .   @   . .   @   @ +   l y x.n / ] n ] ] 7 ] ^ ] ] g V.*.  @   + ,   @ .                   ",
"      .   .     '   '   +   + + + + . + D *.!.= W.Y & I.D.A + + +   )   .   '     .                 "};
