/* XPM */
static char * red_frame_xpm[] = {
"50 50 2 1",
" 	c None",
".	c #00FF00",
"..................................................",
"..................................................",
"..................................................",
"...                                            ...",
"...                                            ...",
"...                                            ...",
"...                                            ...",
"...                                            ...",
"...                                            ...",
"...                                            ...",
"...                                            ...",
"...                                            ...",
"...                                            ...",
"...                                            ...",
"...                                            ...",
"...                                            ...",
"...                                            ...",
"...                                            ...",
"...                                            ...",
"...                                            ...",
"...                                            ...",
"...                                            ...",
"...                                            ...",
"...                                            ...",
"...                                            ...",
"...                                            ...",
"...                                            ...",
"...                                            ...",
"...                                            ...",
"...                                            ...",
"...                                            ...",
"...                                            ...",
"...                                            ...",
"...                                            ...",
"...                                            ...",
"...                                            ...",
"...                                            ...",
"...                                            ...",
"...                                            ...",
"...                                            ...",
"...                                            ...",
"...                                            ...",
"...                                            ...",
"...                                            ...",
"...                                            ...",
"...                                            ...",
"...                                            ...",
"..................................................",
"..................................................",
".................................................."};
